# xmcd
#
# Track frame offsets: 
#        150
#        10744
#        23794
#        37446
#        45168
#        55459
#        68103
#        81833
#        94244
#        113897
#        132200
#        143444
#
# Disc length: 2063 seconds
#
# Revision: 0
# Processed by: cddbd v1.5.2PL0 Copyright (c) Steve Scherf et al.
# Submitted via: ExactAudioCopy v1.0b4
#
DISCID=9c080d0c
DTITLE=Various Artist - Americad Festival Folk Blues (LP)
DYEAR=1973
DGENRE=Blues
TTITLE0=John Lee Hooker - John Lee Hooker - Shake It Up And Go
TTITLE1=John Lee Hooker - John Lee Hooker - Lost My Job
TTITLE2=Memphis Slim - Memphis Slim - Messin' Around
TTITLE3=Memphis Slim - Memphis Slim - Big Town Girl
TTITLE4=Sonny Terry and Brownie McGhee - Sonny Terry and Brownie McGhee - 
TTITLE4=Hooray Hooray, This Woman Is Killing Me
TTITLE5=John Lee Hooker - John Lee Hooker - Risin' Sun
TTITLE6=Jimmy Reed - Jimmy Reed - Help Yourself
TTITLE7=Jimmy Reed - Jimmy Reed - Little Rain
TTITLE8=Sonny Terry and Brownie McGhee - Sonny Terry and Brownie McGhee - 
TTITLE8=Sweet Woman Blues
TTITLE9=Sonny Terry and Brownie McGhee - Sonny Terry and Brownie McGhee - 
TTITLE9=I Got A Little Girl
TTITLE10=Lightnin' Hopkins - Lightnin' Hopkins - I Wonder Why
TTITLE11=Lightnin' Hopkins - Lightnin' Hopkins - Buck Dance Boogie
EXTD=
EXTT0=
EXTT1=
EXTT2=
EXTT3=
EXTT4=
EXTT5=
EXTT6=
EXTT7=
EXTT8=
EXTT9=
EXTT10=
EXTT11=
PLAYORDER=
